<?xml version="1.0" standalone="no"?>
<!DOCTYPE svg PUBLIC "-//W3C//DTD SVG 20010904//EN"
 "http://www.w3.org/TR/2001/REC-SVG-20010904/DTD/svg10.dtd">
<svg version="1.0" xmlns="http://www.w3.org/2000/svg"
 width="225.000000pt" height="205.000000pt" viewBox="0 0 225.000000 205.000000"
 preserveAspectRatio="xMidYMid meet">
<metadata>
Created by potrace 1.16, written by Peter Selinger 2001-2019
</metadata>
<g transform="translate(0.000000,205.000000) scale(0.100000,-0.100000)"
fill="#000000" stroke="none">
<path d="M0 1948 c0 -86 3 -109 20 -136 l20 -33 -20 -29 c-26 -36 -27 -80 -2
-80 31 0 33 -11 7 -42 -20 -24 -25 -40 -25 -88 0 -56 2 -61 35 -86 19 -14 35
-31 35 -36 0 -5 -12 0 -26 11 -15 12 -31 21 -35 21 -15 0 -11 -347 4 -371 10
-17 10 -23 0 -26 -7 -3 -13 -20 -13 -39 0 -21 4 -33 10 -29 6 3 10 1 10 -4 0
-6 -5 -11 -11 -11 -7 0 -10 -42 -8 -125 2 -103 5 -125 17 -125 13 0 13 -3 -1
-18 -15 -16 -17 -55 -17 -337 l0 -318 26 -23 25 -24 855 0 c563 0 854 3 854
10 0 6 -4 10 -10 10 -5 0 -10 25 -10 55 0 43 -3 55 -15 55 -9 0 -18 -7 -21
-15 -4 -8 -12 -15 -20 -15 -17 0 -19 46 -3 56 6 4 9 19 5 36 -3 16 -2 27 3 23
5 -3 22 7 38 22 45 45 98 81 142 99 36 14 46 15 67 4 13 -8 24 -22 24 -32 0
-14 8 -18 34 -18 18 0 39 7 46 15 21 25 60 18 95 -18 30 -31 41 -61 48 -133 1
-13 7 -19 15 -17 6 3 12 -2 12 -10 0 -24 -105 -69 -173 -74 -34 -2 -79 -12
-102 -22 -22 -10 -47 -21 -55 -24 -8 -3 72 -6 178 -6 l192 -1 0 180 c0 172 -1
182 -24 218 -13 20 -30 42 -37 48 -21 17 -77 5 -84 -17 -8 -25 -22 -24 -37 1
-17 27 -45 25 -59 -3 -6 -12 -13 -23 -14 -25 -7 -9 -85 40 -85 53 0 16 -45 21
-54 7 -2 -4 -30 -6 -61 -4 -50 3 -58 1 -85 -27 -17 -16 -30 -39 -30 -50 0 -26
-8 -26 -35 -1 -11 11 -39 23 -60 28 -26 6 -39 14 -37 22 5 19 -7 60 -17 60 -4
0 -16 -18 -26 -40 -10 -22 -26 -47 -37 -57 -22 -19 -61 -95 -72 -136 -4 -17
-11 -25 -18 -21 -7 5 -9 2 -5 -8 4 -12 -9 -20 -55 -35 l-60 -20 6 51 c5 41 13
56 37 75 17 13 41 41 55 62 13 22 29 39 34 39 13 0 70 51 70 62 0 5 9 28 20
50 11 23 18 43 16 45 -1 2 -30 -25 -62 -60 -38 -41 -89 -81 -142 -111 -45 -26
-82 -49 -82 -51 0 -2 17 -2 38 1 30 4 33 3 17 -6 -11 -6 -38 -23 -60 -39 -22
-17 -42 -25 -44 -19 -2 6 4 15 13 20 9 5 16 13 16 19 0 5 -12 -2 -27 -16 -15
-14 -32 -25 -36 -25 -5 0 -21 -9 -37 -20 -35 -25 -47 -14 -18 17 26 28 14 30
-29 3 -37 -22 -52 -12 -22 14 12 10 18 20 15 23 -3 4 -14 -1 -23 -9 -10 -9
-29 -19 -43 -23 -18 -5 -10 5 28 36 50 41 63 59 42 59 -5 0 -14 -9 -20 -20 -6
-11 -17 -20 -24 -20 -7 0 -23 -11 -36 -25 -22 -24 -65 -35 -58 -16 5 14 151
130 236 188 172 115 252 177 252 194 0 9 7 22 15 29 9 7 32 41 52 74 19 34 50
78 69 99 33 36 46 65 22 51 -8 -5 -9 5 -5 34 6 46 -1 53 -21 22 -19 -31 -32
-24 -32 20 0 40 -7 49 -26 30 -8 -8 -14 -7 -22 3 -14 17 10 89 44 129 13 16
27 42 30 56 12 54 16 62 28 62 8 0 17 -26 25 -71 7 -43 21 -85 36 -107 14 -20
25 -45 25 -54 0 -10 5 -18 10 -18 13 0 52 88 48 109 -2 8 -22 28 -46 44 -44
30 -55 49 -23 40 30 -8 91 -63 91 -83 0 -41 24 -120 37 -120 8 0 13 -12 13
-30 0 -19 5 -30 14 -30 8 0 18 -9 21 -20 3 -11 11 -20 17 -20 6 0 26 -14 46
-31 20 -18 59 -42 88 -55 54 -24 88 -60 119 -127 12 -26 29 -42 59 -56 50 -22
67 -42 90 -103 10 -26 22 -50 27 -53 5 -4 9 259 8 667 0 370 -4 665 -8 655 -6
-18 -7 -18 -23 0 -13 15 -61 100 -77 137 -4 9 40 4 87 -10 21 -6 22 -4 22 50
l0 56 -71 0 c-66 0 -70 -1 -65 -20 3 -11 9 -29 12 -40 7 -27 4 -26 -47 20
l-44 40 -455 0 c-385 -1 -458 -3 -474 -15 -11 -8 -28 -13 -37 -10 -11 4 -18
-1 -22 -15 -3 -11 -13 -20 -22 -20 -13 0 -16 7 -13 29 l4 29 -129 1 c-112 0
-127 -2 -116 -15 10 -12 9 -13 -5 -8 -9 3 -16 10 -16 15 0 5 -104 9 -235 9
-129 0 -235 -4 -235 -8 0 -11 61 -33 72 -26 5 3 18 -4 29 -17 10 -12 19 -17
19 -10 0 9 29 10 118 5 64 -4 136 -6 160 -6 23 1 42 -3 42 -8 0 -11 -11 -12
-120 -11 -93 1 -124 1 -275 -2 -66 -1 -135 2 -152 7 -28 8 -32 13 -27 33 5 17
2 23 -10 23 -9 0 -16 5 -16 10 0 6 -12 10 -26 10 -14 0 -23 -4 -19 -10 3 -5
11 -7 18 -5 17 7 38 -40 23 -55 -7 -7 -7 -15 0 -28 6 -9 32 -57 59 -106 26
-49 54 -96 62 -105 31 -35 123 -160 123 -167 0 -5 -22 16 -50 46 -27 30 -50
58 -50 62 0 4 -7 8 -16 8 -8 0 -12 5 -9 11 4 5 0 18 -8 27 -20 23 -111 182
-148 260 -25 51 -34 62 -55 62 -24 0 -24 0 -24 -102z m1929 -3 c23 -25 48 -45
55 -45 20 0 125 -115 141 -154 8 -20 15 -47 15 -61 0 -15 4 -24 9 -20 10 5 5
-45 -5 -54 -3 -3 -31 23 -64 57 -32 34 -63 62 -69 62 -6 0 10 -19 34 -41 42
-39 66 -80 28 -47 -42 34 -126 81 -163 89 -33 8 -147 54 -159 65 -2 2 2 10 9
19 8 9 10 27 6 47 -3 17 -3 46 0 64 6 32 7 33 29 18 23 -15 40 -80 23 -90 -5
-3 2 -14 16 -25 27 -21 41 -25 30 -8 -4 7 -9 26 -11 42 -1 17 -9 40 -17 51
-11 18 -10 23 13 48 14 15 29 27 32 28 3 0 25 -20 48 -45z m-1841 -324 c26
-15 170 -61 188 -61 18 0 17 -1 -15 -52 -12 -21 -29 -38 -37 -38 -26 0 -184
81 -193 99 -7 13 -6 24 5 39 17 24 26 26 52 13z m1385 -126 c-4 -29 -4 -29 11
-11 15 19 16 18 16 -23 0 -26 4 -40 10 -36 7 4 8 -8 4 -34 -7 -43 9 -59 21
-20 6 19 29 23 24 4 -9 -38 -13 -45 -30 -45 -16 0 -19 -8 -19 -45 0 -53 -26
-99 -57 -103 -13 -2 -23 1 -23 6 0 5 -9 12 -20 15 -17 4 -20 0 -20 -28 0 -30
-14 -46 -43 -49 -4 -1 -11 -6 -15 -12 -4 -6 -21 -18 -39 -27 -26 -14 -32 -14
-36 -3 -3 8 -19 17 -36 21 -17 4 -33 11 -36 16 -10 15 59 10 83 -7 20 -13 22
-13 22 0 0 20 -31 36 -69 36 -30 0 -41 13 -21 25 6 3 17 20 26 37 l16 30 -29
-6 c-26 -6 -30 -3 -41 27 -15 41 -16 84 -2 92 6 3 10 1 10 -6 0 -8 4 -8 15 1
13 10 19 10 33 -2 9 -8 25 -18 35 -21 9 -4 17 -12 17 -19 0 -7 14 -21 32 -31
27 -16 33 -16 46 -4 12 13 12 18 -1 43 -13 25 -13 31 4 61 l19 34 -33 -6 c-24
-5 -37 -2 -47 10 -12 14 -11 16 12 10 16 -4 30 -1 41 9 19 20 26 20 48 0 15
-14 19 -13 38 12 23 30 16 58 -19 69 -29 9 -24 25 10 32 17 3 30 11 31 17 1 6
4 0 9 -14 4 -14 5 -38 3 -55z m-515 -75 c31 -37 34 -51 13 -57 -25 -6 -26 -12
-8 -38 8 -11 26 -54 42 -95 15 -41 31 -84 36 -95 4 -11 11 -30 14 -42 4 -13
11 -23 16 -23 5 0 9 -11 9 -25 0 -48 -20 -29 -74 67 -13 24 -33 78 -45 120
-12 43 -28 90 -36 105 -8 15 -15 50 -15 77 0 45 1 47 18 35 9 -8 23 -21 30
-29z m-624 -21 c-3 -5 -1 -9 5 -9 5 0 13 5 16 10 5 8 11 7 21 -1 11 -9 17 -9
29 1 12 10 15 10 15 -4 0 -20 14 -21 30 -1 20 24 40 -26 40 -101 0 -59 -11
-82 -23 -51 -4 7 -6 6 -6 -4 -1 -15 18 -29 39 -29 11 0 7 164 -5 173 -6 4 -5
11 5 16 8 6 15 9 16 8 1 -1 4 -38 6 -82 l3 -80 44 -3 c28 -1 48 2 53 10 6 10
10 10 16 1 4 -6 19 -10 35 -10 24 2 25 4 11 14 -9 6 -22 9 -30 6 -8 -3 -14 0
-14 6 0 7 -16 19 -35 27 -33 13 -35 17 -35 59 0 25 2 45 5 45 5 0 87 -25 183
-56 9 -3 4 -16 -17 -47 -22 -33 -27 -47 -19 -55 8 -8 5 -14 -13 -21 -18 -7 -6
-8 46 -7 39 2 83 10 100 18 17 9 43 16 58 16 26 0 28 -3 22 -30 -4 -16 -22
-62 -41 -103 -19 -41 -34 -83 -34 -94 0 -12 -4 -21 -10 -21 -5 0 -10 -10 -10
-22 0 -13 -7 -32 -15 -42 -8 -11 -13 -28 -10 -37 3 -10 1 -20 -5 -24 -5 -3
-10 -18 -10 -33 0 -37 -16 -78 -84 -216 -53 -107 -59 -126 -57 -175 1 -31 6
-60 10 -66 9 -12 21 -55 15 -55 -2 0 -12 4 -22 9 -9 5 -29 14 -44 22 -27 12
-28 16 -28 80 0 84 9 107 60 160 40 41 49 59 30 59 -6 0 -6 10 1 27 6 16 7 49
3 77 l-6 50 -29 -99 c-37 -128 -48 -154 -70 -166 -16 -8 -19 -6 -20 13 0 22
-1 22 -8 3 -5 -11 -4 -53 1 -93 6 -41 7 -76 5 -79 -8 -7 -67 36 -67 49 0 5 -9
17 -20 26 -34 28 -35 79 -6 161 14 40 26 82 26 94 1 30 38 110 48 103 11 -7
29 31 38 81 8 48 20 70 54 108 25 28 40 83 19 70 -5 -4 -9 -13 -9 -21 0 -8 -3
-14 -7 -14 -5 0 -19 -16 -32 -35 -13 -20 -26 -33 -29 -30 -3 3 -18 -7 -34 -22
-20 -19 -26 -32 -22 -49 4 -17 -2 -33 -20 -55 -30 -35 -33 -49 -11 -49 16 0
14 -26 -6 -75 -8 -22 -7 -26 -14 50 -5 47 -6 50 -15 30 -8 -18 -9 -18 -9 6 -1
14 4 30 11 37 9 9 7 21 -11 53 -13 22 -21 41 -20 42 43 22 44 25 41 81 -2 44
1 56 13 56 16 0 19 18 6 38 -6 10 -10 10 -21 -3 -7 -8 -23 -15 -36 -15 -12 0
-26 -4 -29 -10 -3 -5 -16 -10 -28 -10 -12 0 -33 -9 -47 -20 -14 -11 -29 -20
-35 -20 -25 -2 -122 -146 -136 -202 -14 -51 -31 -69 -79 -83 -24 -7 -24 -7 -5
8 11 9 17 19 13 23 -4 4 -14 2 -21 -4 -8 -7 -17 -9 -20 -5 -4 3 2 13 14 21 11
8 18 20 15 29 -3 8 -2 12 2 9 4 -2 16 2 26 10 19 14 19 15 -8 43 -24 24 -26
32 -17 50 14 25 34 27 51 6 17 -21 23 -19 41 14 16 28 16 30 -9 54 -22 23 -24
29 -14 52 14 30 38 32 72 5 14 -11 29 -20 33 -20 4 0 7 75 7 166 -1 91 0 166
2 167 1 1 12 7 22 13 22 12 69 6 60 -7z"/>
<path d="M370 1350 c-8 -6 -26 -8 -40 -5 -25 5 -25 4 -28 -62 -1 -36 -8 -73
-14 -81 -10 -11 -7 -18 12 -33 22 -16 24 -20 12 -40 -11 -18 -11 -20 0 -15 7
3 21 9 31 12 19 7 22 20 6 29 -13 9 18 45 39 45 10 0 12 -7 8 -25 -5 -18 -2
-25 8 -25 21 0 36 32 36 73 0 19 5 48 11 66 9 27 8 35 -6 51 -20 22 -51 26
-75 10z"/>
</g>
</svg>
